<?xml version="1.0" encoding="UTF-8" standalone="no"?>
<!-- Created with Inkscape (http://www.inkscape.org/) -->
<svg
   xmlns:dc="http://purl.org/dc/elements/1.1/"
   xmlns:cc="http://web.resource.org/cc/"
   xmlns:rdf="http://www.w3.org/1999/02/22-rdf-syntax-ns#"
   xmlns:svg="http://www.w3.org/2000/svg"
   xmlns="http://www.w3.org/2000/svg"
   xmlns:xlink="http://www.w3.org/1999/xlink"
   xmlns:sodipodi="http://sodipodi.sourceforge.net/DTD/sodipodi-0.dtd"
   xmlns:inkscape="http://www.inkscape.org/namespaces/inkscape"
   width="48px"
   height="48px"
   id="svg2289"
   sodipodi:version="0.32"
   inkscape:version="0.45.1"
   sodipodi:docbase="/home/chipx86/Documents/graphics/projects/vmware/ws65/scalable/apps"
   sodipodi:docname="vmware-acevm.svg"
   inkscape:output_extension="org.inkscape.output.svg.inkscape">
  <defs
     id="defs2291">
    <linearGradient
       inkscape:collect="always"
       xlink:href="#linearGradient3259"
       id="linearGradient3304"
       gradientUnits="userSpaceOnUse"
       gradientTransform="matrix(0.744186,0,0,0.744186,5.6395336,6.383721)"
       x1="25.19068"
       y1="8.6671848"
       x2="25.19068"
       y2="43.347984" />
    <linearGradient
       id="linearGradient3248">
      <stop
         style="stop-color:#7d4c86;stop-opacity:1;"
         offset="0"
         id="stop3250" />
      <stop
         style="stop-color:#985fa3;stop-opacity:1;"
         offset="1"
         id="stop3252" />
    </linearGradient>
    <linearGradient
       inkscape:collect="always"
       xlink:href="#linearGradient3248"
       id="linearGradient3263"
       gradientUnits="userSpaceOnUse"
       x1="29.875"
       y1="1.8916243"
       x2="29.875"
       y2="47"
       gradientTransform="translate(0,-1)" />
    <linearGradient
       id="linearGradient3259">
      <stop
         id="stop3261"
         offset="0"
         style="stop-color:#729fcf;stop-opacity:1;" />
      <stop
         id="stop3263"
         offset="1"
         style="stop-color:#3f7ab9;stop-opacity:1;" />
    </linearGradient>
    <linearGradient
       inkscape:collect="always"
       xlink:href="#linearGradient3259"
       id="linearGradient3302"
       gradientUnits="userSpaceOnUse"
       gradientTransform="matrix(0.2790698,0,0,0.2790698,16.802326,17.081396)"
       x1="25.19068"
       y1="8.6671848"
       x2="25.19068"
       y2="43.347984" />
  </defs>
  <sodipodi:namedview
     id="base"
     pagecolor="#ffffff"
     bordercolor="#666666"
     borderopacity="1.0"
     inkscape:pageopacity="0.0"
     inkscape:pageshadow="2"
     inkscape:zoom="1"
     inkscape:cx="15.211673"
     inkscape:cy="40.970563"
     inkscape:current-layer="layer1"
     showgrid="false"
     inkscape:grid-bbox="true"
     inkscape:document-units="px"
     inkscape:window-width="872"
     inkscape:window-height="627"
     inkscape:window-x="4"
     inkscape:window-y="45" />
  <metadata
     id="metadata2294">
    <rdf:RDF>
      <cc:Work
         rdf:about="">
        <dc:format>image/svg+xml</dc:format>
        <dc:type
           rdf:resource="http://purl.org/dc/dcmitype/StillImage" />
      </cc:Work>
    </rdf:RDF>
  </metadata>
  <g
     id="layer1"
     inkscape:label="Layer 1"
     inkscape:groupmode="layer">
    <rect
       style="opacity:1;fill:#ffffff;fill-opacity:1;stroke:none;stroke-width:1;stroke-linejoin:bevel;stroke-miterlimit:4;stroke-dasharray:none;stroke-dashoffset:0;stroke-opacity:1"
       id="rect3247"
       width="23"
       height="23"
       x="11.999999"
       y="12" />
    <path
       style="opacity:0.19200003;fill:#000000;fill-opacity:1;fill-rule:nonzero;stroke:#000000;stroke-width:1;stroke-linecap:square;stroke-linejoin:miter;stroke-miterlimit:4;stroke-dasharray:none;stroke-dashoffset:0;stroke-opacity:1"
       d="M 20.004855,18.499999 C 19.075098,18.499999 18.5,19.076148 18.5,19.916466 L 18.5,29.03934 C 18.5,30.060268 19.028121,30.5 20.04905,30.5 L 29.083535,30.5 C 29.972453,30.5 30.500001,30.016248 30.500001,29.03934 L 30.500001,20.049049 C 30.500001,19.031953 29.969099,18.499999 29.039341,18.499999 L 20.004855,18.499999 z "
       id="path3276"
       sodipodi:nodetypes="ccccccccc" />
    <path
       style="opacity:0.19200003;fill:#000000;fill-opacity:1;fill-rule:nonzero;stroke:#000000;stroke-width:1;stroke-linecap:square;stroke-linejoin:miter;stroke-miterlimit:4;stroke-dasharray:none;stroke-dashoffset:0;stroke-opacity:1"
       d="M 7.5,2.5 C 4.73,2.5 2.5,4.7300002 2.5,7.5000004 L 2.5,41.5 C 2.5,44.27 4.73,46.500001 7.5,46.5 L 18.353553,46.5 L 24.5,40.125 L 30.646447,46.5 L 41.5,46.5 C 44.27,46.5 46.5,44.270001 46.5,41.5 L 46.5,7.5000004 C 46.5,4.7300004 44.27,2.5 41.5,2.5 L 7.5,2.5 z M 11.78125,8.5000004 L 37.21875,8.5000004 C 39.652828,8.5000004 40.5,9.107144 40.5,11.6875 L 40.5,37.3125 C 40.5,39.786822 39.732862,40.5 37.21875,40.5 L 32.859375,40.5 L 24.5,31.572777 L 16.140625,40.5 L 11.78125,40.5 C 9.3896461,40.5 8.5,39.767807 8.5,37.3125 L 8.5,11.6875 C 8.5,9.544577 9.0796921,8.5000004 11.78125,8.5000004 z "
       id="rect2269"
       sodipodi:nodetypes="cccccccccccccccccccccccc" />
    <path
       style="fill:url(#linearGradient3304);fill-opacity:1;fill-rule:nonzero;stroke:#204a87;stroke-width:1;stroke-linecap:square;stroke-linejoin:miter;stroke-miterlimit:4;stroke-dasharray:none;stroke-dashoffset:0;stroke-opacity:1"
       d="M 8.5666664,7.5 C 7.9757331,7.5 7.4999997,7.9757334 7.4999997,8.5666668 L 7.4999997,38.433333 C 7.4999997,39.024266 7.9757331,39.5 8.5666664,39.5 L 38.433333,39.5 C 39.024266,39.5 39.5,39.024266 39.5,38.433333 L 39.5,8.5666668 C 39.5,7.9757334 39.024266,7.5 38.433333,7.5 L 8.5666664,7.5 z M 14.07978,12.47978 L 32.986887,12.47978 C 33.577819,12.47978 34.520219,13.555514 34.520219,14.146446 L 34.520219,32.876025 C 34.520219,33.466959 33.577819,34.476025 32.986887,34.476025 L 14.146447,34.476025 C 13.555514,34.476025 12.47978,33.466959 12.47978,32.876025 L 12.47978,14.07978 C 12.47978,13.488846 13.488847,12.47978 14.07978,12.47978 z "
       id="rect3275"
       sodipodi:nodetypes="cccccccccccccccccc" />
    <rect
       ry="1.5"
       rx="1.5"
       y="8.499999"
       x="8.499999"
       height="30"
       width="30"
       id="rect3196"
       style="opacity:0.3;fill:none;fill-opacity:1;stroke:#ffffff;stroke-width:1;stroke-linejoin:bevel;stroke-miterlimit:4;stroke-dasharray:none;stroke-dashoffset:0;stroke-opacity:1" />
    <path
       sodipodi:nodetypes="cccccccccccccccccccccccc"
       id="path3211"
       d="M 6.5,1.5 C 3.73,1.5 1.5,3.7300002 1.5,6.5000004 L 1.5,40.5 C 1.5,43.27 3.73,45.500001 6.5,45.5 L 17.353553,45.5 L 23.5,39.125 L 29.646447,45.5 L 40.5,45.5 C 43.27,45.5 45.5,43.270001 45.5,40.5 L 45.5,6.5000004 C 45.5,3.7300004 43.27,1.5 40.5,1.5 L 6.5,1.5 z M 10.78125,7.5000004 L 36.21875,7.5000004 C 38.652828,7.5000004 39.5,8.107144 39.5,10.6875 L 39.5,36.3125 C 39.5,38.786822 38.732862,39.5 36.21875,39.5 L 31.859375,39.5 L 23.5,30.572777 L 15.140625,39.5 L 10.78125,39.5 C 8.3896464,39.5 7.5,38.767807 7.5,36.3125 L 7.5,10.6875 C 7.5,8.5445778 8.0796922,7.5000004 10.78125,7.5000004 z "
       style="fill:url(#linearGradient3263);fill-opacity:1;fill-rule:nonzero;stroke:#5c3566;stroke-width:1;stroke-linecap:square;stroke-linejoin:miter;stroke-miterlimit:4;stroke-dasharray:none;stroke-dashoffset:0;stroke-opacity:1" />
    <path
       sodipodi:nodetypes="ccccccccc"
       id="path3300"
       d="M 19.004855,17.5 C 18.075098,17.5 17.5,18.076149 17.5,18.916467 L 17.5,28.039341 C 17.5,29.060269 18.028121,29.500001 19.04905,29.500001 L 28.083535,29.500001 C 28.972453,29.500001 29.500001,29.016249 29.500001,28.039341 L 29.500001,19.04905 C 29.500001,18.031954 28.969099,17.5 28.039341,17.5 L 19.004855,17.5 z "
       style="fill:url(#linearGradient3302);fill-opacity:1;fill-rule:nonzero;stroke:#204a87;stroke-width:1;stroke-linecap:square;stroke-linejoin:miter;stroke-miterlimit:4;stroke-dasharray:none;stroke-dashoffset:0;stroke-opacity:1" />
    <path
       style="opacity:0.3;fill:none;fill-opacity:1;fill-rule:nonzero;stroke:#eeeeec;stroke-width:1;stroke-linecap:square;stroke-linejoin:miter;stroke-miterlimit:4;stroke-dashoffset:0;stroke-opacity:1"
       d="M 6.4999962,2.500001 L 40.5,2.500001 C 42.716,2.500001 44.5,4.2840014 44.5,6.5000014 L 44.5,40.500001 C 44.5,42.716001 42.716,44.500001 40.5,44.500001 L 30.116116,44.500001 L 23.499998,37.676778 L 16.883881,44.500001 L 6.4999962,44.500001 C 4.2839962,44.500001 2.4999962,42.716001 2.4999962,40.500001 L 2.4999962,6.5000014 C 2.4999962,4.2840014 4.2839962,2.500001 6.4999962,2.500001 z "
       id="rect2271"
       sodipodi:nodetypes="cccccccccccc" />
    <rect
       style="opacity:0.3;fill:none;fill-opacity:1;stroke:#ffffff;stroke-width:0.99999994;stroke-linejoin:bevel;stroke-miterlimit:4;stroke-dasharray:none;stroke-dashoffset:0;stroke-opacity:1"
       id="rect3194"
       width="10"
       height="10.000002"
       x="18.5"
       y="18.499998"
       rx="0.5"
       ry="0.5" />
    <path
       sodipodi:nodetypes="ccccccc"
       id="path3298"
       d="M 6.11592,2.000001 L 40.775129,2.000001 C 42.743724,2.000001 44.64105,3.561001 44.64105,5.5000011 L 44.999999,21.381281 L 1.999999,25.270368 L 1.999999,5.9375011 C 1.999999,3.9985011 4.147325,2.000001 6.11592,2.000001 z "
       style="opacity:0.12637365;fill:#ffffff;fill-opacity:1;fill-rule:nonzero;stroke:none;stroke-width:0.99999994;stroke-linecap:square;stroke-linejoin:miter;stroke-miterlimit:4;stroke-dashoffset:0;stroke-opacity:1" />
  </g>
</svg>
