/* XPM */
static char * client_device_xpm[] = {
"22 23 118 2",
"  	c None",
". 	c #5A5A5A",
"+ 	c #595959",
"@ 	c #FFFFFF",
"# 	c #595958",
"$ 	c #585857",
"% 	c #00C600",
"& 	c #E4E4E4",
"* 	c #585757",
"= 	c #797672",
"- 	c #2A2A2A",
"; 	c #5B5B5B",
"> 	c #FDFDFC",
", 	c #545554",
"' 	c #F5F5F8",
") 	c #E1E1EF",
"! 	c #FCFCFC",
"~ 	c #C6C6C6",
"{ 	c #969596",
"] 	c #F9F9F9",
"^ 	c #525353",
"/ 	c #ECECEC",
"( 	c #9999CB",
"_ 	c #6AD0FF",
": 	c #78D7FF",
"< 	c #92E4FF",
"[ 	c #9EECFF",
"} 	c #ACF3FF",
"| 	c #84DEFF",
"1 	c #7FD7FF",
"2 	c #9090C6",
"3 	c #F6F5F5",
"4 	c #515150",
"5 	c #69CFFF",
"6 	c #75D6FF",
"7 	c #8EE3FF",
"8 	c #99E9FF",
"9 	c #82DCFF",
"0 	c #EDEEED",
"a 	c #4D4C4C",
"b 	c #E5E5E5",
"c 	c #A6A6D1",
"d 	c #65CDFF",
"e 	c #71D4FF",
"f 	c #86DFFF",
"g 	c #7DD9FF",
"h 	c #A2A2CF",
"i 	c #E9E9E9",
"j 	c #4B4A4B",
"k 	c #DEDEDE",
"l 	c #B8B8DB",
"m 	c #60CBFF",
"n 	c #74D5FF",
"o 	c #B4B4D9",
"p 	c #484848",
"q 	c #D5D5E3",
"r 	c #DEDEEE",
"s 	c #50C2FF",
"t 	c #58C6FF",
"u 	c #D9D9EC",
"v 	c #DFDFDF",
"w 	c #464646",
"x 	c #D0D0EC",
"y 	c #F0F0F7",
"z 	c #47BDFF",
"A 	c #4EC1FF",
"B 	c #59C6FF",
"C 	c #5CC9FF",
"D 	c #5DC9FF",
"E 	c #54C4FF",
"F 	c #ECECF5",
"G 	c #D4D4D5",
"H 	c #D5D5D5",
"I 	c #D5D4D4",
"J 	c #D4D4D4",
"K 	c #414141",
"L 	c #3DB7FF",
"M 	c #43BBFF",
"N 	c #4DC0FF",
"O 	c #51C2FF",
"P 	c #49BEFF",
"Q 	c #4BB7FF",
"R 	c #CFCECF",
"S 	c #3F3F3F",
"T 	c #CBCBF6",
"U 	c #545454",
"V 	c #848484",
"W 	c #C9CAC9",
"X 	c #3D3D3D",
"Y 	c #BDBDBD",
"Z 	c #BDBDBE",
"` 	c #39393A",
" .	c #9C9993",
"..	c #6C6865",
"+.	c #666565",
"@.	c #353334",
"#.	c #B7B7B7",
"$.	c #373738",
"%.	c #363536",
"&.	c #B2B2B1",
"*.	c #B1B1B1",
"=.	c #353635",
"-.	c #838383",
";.	c #AAABAB",
">.	c #333434",
",.	c #AAA7A4",
"'.	c #9E9F9E",
").	c #303030",
"!.	c #999999",
"~.	c #2E2E2E",
"{.	c #939393",
"].	c #2C2D2D",
"^.	c #888888",
"/.	c #888788",
"(.	c #878888",
"_.	c #2B2B2B",
":.	c #575451",
"<.	c #000000",
"                    . . . . . . . . . . . . ",
"                    + @ @ @ @ @ @ @ @ @ @ # ",
"                    $ @ % % & @ @ @ @ @ @ * ",
"= - - - - - - - - - - - - - ; ; ; ; ; ; > , ",
"- ' ) ) ) ) ) ) ) ) ) ) ! - & ~ ~ ~ ~ { ] ^ ",
"- / ( _ : < [ } [ | 1 2 / - @ @ @ @ @ 3 3 4 ",
"- / ( 5 6 7 8 [ 8 9 6 2 / - ; ; ; ; ; ; 0 a ",
"- b c d e f 7 < 7 g e h b - & ~ ~ ~ ~ { i j ",
"- k l m _ g 9 | 9 n _ o k - & & & & & { & p ",
"- q r s t d 5 _ 5 m t u q - @ @ @ @ @ & v w ",
"- x y z A B C D C E A F x - G H H I H J J K ",
"- x y L M N s O s P Q F x - R R R R R R R S ",
"- T @ @ @ @ @ @ @ @ @ @ T - U U U U U V W X ",
"= - - - - - - - - - - - - - Y Y Y Y Y Y Z ` ",
"   ...............+.a @.@.+ U U U U U V #.$.",
"                    %.&.&.&.&.&.&.&.&.&.*.=.",
"    -.- - - - - - - - - - - - - -.U U V ;.>.",
"    - @ ,.,.@ ,.@ @ ,.@ ,.,.@ ,.- '.'.'.'.).",
"    - ,.,.,.,.,.,.,.,.,.,.,.,.,.- U U V !.~.",
"    - @ @ @ ,.@ ,.,.@ @ ,.@ ,.@ - {.{.{.{.].",
"    - ,.,.,.,.,.,.,.,.,.,.,.,.,.- ^./.(.^._.",
"    -.- - - - - - - - - - - - - -.- - - - - ",
"       ...........................:.:.<.:.:."};
