/* XPM */
static char * host_device_xpm[] = {
"27 24 84 1",
" 	c None",
".	c #002A00",
"+	c #2AFF2A",
"@	c #6C6865",
"#	c #5A5A5A",
"$	c #2A2A2A",
"%	c #00C600",
"&	c #595959",
"*	c #FFFFFF",
"=	c #595958",
"-	c #585857",
";	c #E4E4E4",
">	c #585757",
",	c #545455",
"'	c #FDFDFC",
")	c #5B5B5B",
"!	c #545554",
"~	c #525353",
"{	c #F9F9F8",
"]	c #969596",
"^	c #C6C6C6",
"/	c #F9F9F9",
"(	c #515151",
"_	c #F6F6F6",
":	c #F6F5F5",
"<	c #515150",
"[	c #4C4D4C",
"}	c #EEEDED",
"|	c #EDEEED",
"1	c #4D4C4C",
"2	c #4B4B4B",
"3	c #E9EAE9",
"4	c #E9E9E9",
"5	c #4B4A4B",
"6	c #484948",
"7	c #484848",
"8	c #464646",
"9	c #E0E0DF",
"0	c #DFDFDF",
"a	c #414142",
"b	c #D4D4D5",
"c	c #D4D4D4",
"d	c #D5D5D5",
"e	c #D5D4D4",
"f	c #414141",
"g	c #3F3F40",
"h	c #CFCECF",
"i	c #3F3F3F",
"j	c #3D3D3D",
"k	c #C9CAC9",
"l	c #848484",
"m	c #545454",
"n	c #3A3A39",
"o	c #BDBDBD",
"p	c #BDBDBE",
"q	c #39393A",
"r	c #373737",
"s	c #B7B7B7",
"t	c #373738",
"u	c #363536",
"v	c #B2B2B1",
"w	c #B1B1B1",
"x	c #353635",
"y	c #343434",
"z	c #AAABAB",
"A	c #333434",
"B	c #2F2F2F",
"C	c #9E9F9E",
"D	c #303030",
"E	c #2E2E2E",
"F	c #999999",
"G	c #2C2D2D",
"H	c #939393",
"I	c #2B2B2B",
"J	c #888788",
"K	c #878788",
"L	c #888787",
"M	c #878888",
"N	c #878887",
"O	c #888888",
"P	c #2C2A29",
"Q	c #000000",
"R	c #222021",
"S	c #575451",
"       ....  ....          ",
"       .++.@ .+############",
"     $$.%%.$$.%&**********=",
"     $@....@@..-*%%;******>",
"     $@ @@@@  @,'))))))))'!",
"     $@        ~{]%;^^^^]/~",
".... $@....  ..(_:******::<",
".++.$$$.++.@ .+[}))))))))|1",
".%%.@$@.%%.$$.%23]%;^^^^]45",
"....@$@....@@..6;];;;;;;];7",
" @@@@$@ @@@@  @89;******;08",
"     $@        abcdbddedccf",
"     $@....  ..ghhhhhhhhhhi",
"     $@.++.@ .+jklmmmmmmlkj",
"     $$.%%.$$.%nooooooooopq",
"      @....@@..rslmmmmmmlst",
"        @@@@  @uvvvvvvvvvwx",
"               yzlmmmmmmlzA",
"               BCCCCCCCCCCD",
"               EFlmmmmmmlFE",
"               GHHHHHHHHHHG",
"               IJKLMMNOJMOI",
"               $$$$$$$$$$$$",
"                PQPRSSSSQSS"};
